<svg xmlns="http://www.w3.org/2000/svg" xmlns:xlink="http://www.w3.org/1999/xlink" version="1.1" x="0px" y="0px" viewBox="0 0 52 65" style="enable-background:new 0 0 52 52;" xml:space="preserve"><g><path d="M37.7297668,40.0354004V18.4060059v-0.0004883V6.833252c0-0.5522461-0.4472656-1-1-1H1.0002747   c-0.5527344,0-1,0.4477539-1,1V45.166748c0,0.5522461,0.4472656,1,1,1h39.5402832   C38.8225403,44.6749268,37.7297668,42.4822998,37.7297668,40.0354004z M11.1297302,9.0855103   c2.1799927,0,3.9500122,1.7700195,3.9500122,3.9500122c0,2.1699829-1.7700195,3.9500122-3.9500122,3.9500122   S7.179718,15.2055054,7.179718,13.0355225C7.179718,10.8555298,8.9497375,9.0855103,11.1297302,9.0855103z M3.6297302,26.0855103   v-1.1599731c0-3.6700439,3.4699707-6.6500244,7.75-6.6500244c4.2700195,0,7.75,2.9799805,7.75,6.6500244v1.1599731   c0,0.5499878-0.4500122,1-1,1h-13.5C4.0697327,27.0855103,3.6297302,26.635498,3.6297302,26.0855103z M31.209259,41.0344238   H5.5422668c-0.5527344,0-1-0.4477539-1-1s0.4472656-1,1-1H31.209259c0.5527344,0,1,0.4477539,1,1   S31.7619934,41.0344238,31.209259,41.0344238z M31.209259,32.0344238H5.5422668c-0.5527344,0-1-0.4477539-1-1s0.4472656-1,1-1   H31.209259c0.5527344,0,1,0.4477539,1,1S31.7619934,32.0344238,31.209259,32.0344238z M31.209259,23.0344238H20.5422668   c-0.5527344,0-1-0.4477539-1-1s0.4472656-1,1-1H31.209259c0.5527344,0,1,0.4477539,1,1S31.7619934,23.0344238,31.209259,23.0344238   z M31.209259,14.0344238H20.5422668c-0.5527344,0-1-0.4477539-1-1s0.4472656-1,1-1H31.209259c0.5527344,0,1,0.4477539,1,1   S31.7619934,14.0344238,31.209259,14.0344238z"/><path d="M50.9997253,17.4055176H40.7297058c-0.5499878,0-1,0.4500122-1,1v21.6300049   c0,3.3800049,2.75,6.1300049,6.1400146,6.1300049c3.3800049,0,6.1300049-2.75,6.1300049-6.1300049V18.4055176   C51.9997253,17.8555298,51.5497131,17.4055176,50.9997253,17.4055176z"/></g><text x="0" y="67" fill="#000000" font-size="5px" font-weight="bold" font-family="'Helvetica Neue', Helvetica, Arial-Unicode, Arial, Sans-serif">Created by DinosoftLabs</text><text x="0" y="72" fill="#000000" font-size="5px" font-weight="bold" font-family="'Helvetica Neue', Helvetica, Arial-Unicode, Arial, Sans-serif">from the Noun Project</text></svg>